<mxfile host="app.diagrams.net" modified="2023-04-15T14:26:02.380Z" agent="Mozilla/5.0 (Windows NT 10.0; Win64; x64) AppleWebKit/537.36 (KHTML, like Gecko) Chrome/112.0.0.0 Safari/537.36" etag="YWou1mkrSDmTig4P5EVd" version="21.1.5" type="device">
  <diagram id="C5RBs43oDa-KdzZeNtuy" name="Page-1">
    <mxGraphModel dx="819" dy="400" grid="1" gridSize="10" guides="1" tooltips="1" connect="1" arrows="1" fold="1" page="1" pageScale="1" pageWidth="827" pageHeight="1169" math="0" shadow="0">
      <root>
        <mxCell id="WIyWlLk6GJQsqaUBKTNV-0" />
        <mxCell id="WIyWlLk6GJQsqaUBKTNV-1" parent="WIyWlLk6GJQsqaUBKTNV-0" />
        <mxCell id="xvgsJNBPu3g_IwPxBa5t-0" value="" style="edgeStyle=orthogonalEdgeStyle;rounded=0;orthogonalLoop=1;jettySize=auto;html=1;" edge="1" parent="WIyWlLk6GJQsqaUBKTNV-1" source="WIyWlLk6GJQsqaUBKTNV-3" target="pglS5CSH46RaiRUaM-j_-1">
          <mxGeometry relative="1" as="geometry" />
        </mxCell>
        <mxCell id="WIyWlLk6GJQsqaUBKTNV-3" value="开始" style="rounded=1;whiteSpace=wrap;fontSize=12;glass=0;strokeWidth=1;shadow=0;fontFamily=思源黑体 Heavy;html=1;" parent="WIyWlLk6GJQsqaUBKTNV-1" vertex="1">
          <mxGeometry x="190" y="100" width="60" height="20" as="geometry" />
        </mxCell>
        <mxCell id="xvgsJNBPu3g_IwPxBa5t-2" value="" style="edgeStyle=orthogonalEdgeStyle;rounded=0;orthogonalLoop=1;jettySize=auto;html=1;" edge="1" parent="WIyWlLk6GJQsqaUBKTNV-1" source="pglS5CSH46RaiRUaM-j_-1" target="xvgsJNBPu3g_IwPxBa5t-1">
          <mxGeometry relative="1" as="geometry" />
        </mxCell>
        <mxCell id="pglS5CSH46RaiRUaM-j_-1" value="A ←&amp;nbsp;06H&lt;br&gt;B ← 10H" style="rounded=0;whiteSpace=wrap;fontFamily=思源黑体 Heavy;html=1;" parent="WIyWlLk6GJQsqaUBKTNV-1" vertex="1">
          <mxGeometry x="160" y="140" width="120" height="50" as="geometry" />
        </mxCell>
        <mxCell id="xvgsJNBPu3g_IwPxBa5t-4" value="" style="edgeStyle=orthogonalEdgeStyle;rounded=0;orthogonalLoop=1;jettySize=auto;html=1;" edge="1" parent="WIyWlLk6GJQsqaUBKTNV-1" source="xvgsJNBPu3g_IwPxBa5t-1" target="xvgsJNBPu3g_IwPxBa5t-3">
          <mxGeometry relative="1" as="geometry" />
        </mxCell>
        <mxCell id="xvgsJNBPu3g_IwPxBa5t-1" value="DIV AB" style="whiteSpace=wrap;fontFamily=思源黑体 Heavy;rounded=0;html=1;" vertex="1" parent="WIyWlLk6GJQsqaUBKTNV-1">
          <mxGeometry x="160" y="210" width="120" height="40" as="geometry" />
        </mxCell>
        <mxCell id="xvgsJNBPu3g_IwPxBa5t-7" value="" style="edgeStyle=orthogonalEdgeStyle;rounded=0;orthogonalLoop=1;jettySize=auto;html=1;" edge="1" parent="WIyWlLk6GJQsqaUBKTNV-1" source="xvgsJNBPu3g_IwPxBa5t-3" target="xvgsJNBPu3g_IwPxBa5t-5">
          <mxGeometry relative="1" as="geometry" />
        </mxCell>
        <mxCell id="xvgsJNBPu3g_IwPxBa5t-3" value="30H&amp;nbsp;← (B)&lt;br&gt;31H&amp;nbsp;← (A)" style="whiteSpace=wrap;fontFamily=思源黑体 Heavy;rounded=0;html=1;" vertex="1" parent="WIyWlLk6GJQsqaUBKTNV-1">
          <mxGeometry x="160" y="270" width="120" height="40" as="geometry" />
        </mxCell>
        <mxCell id="xvgsJNBPu3g_IwPxBa5t-9" value="" style="edgeStyle=orthogonalEdgeStyle;rounded=0;orthogonalLoop=1;jettySize=auto;html=1;" edge="1" parent="WIyWlLk6GJQsqaUBKTNV-1" source="xvgsJNBPu3g_IwPxBa5t-5" target="xvgsJNBPu3g_IwPxBa5t-8">
          <mxGeometry relative="1" as="geometry" />
        </mxCell>
        <mxCell id="xvgsJNBPu3g_IwPxBa5t-5" value="ORL&amp;nbsp; A, #30H&lt;br&gt;		ORL&amp;nbsp; B, #30H" style="whiteSpace=wrap;fontFamily=思源黑体 Heavy;rounded=0;html=1;" vertex="1" parent="WIyWlLk6GJQsqaUBKTNV-1">
          <mxGeometry x="160" y="330" width="120" height="40" as="geometry" />
        </mxCell>
        <mxCell id="xvgsJNBPu3g_IwPxBa5t-11" value="" style="edgeStyle=orthogonalEdgeStyle;rounded=0;orthogonalLoop=1;jettySize=auto;html=1;" edge="1" parent="WIyWlLk6GJQsqaUBKTNV-1" source="xvgsJNBPu3g_IwPxBa5t-8" target="xvgsJNBPu3g_IwPxBa5t-10">
          <mxGeometry relative="1" as="geometry" />
        </mxCell>
        <mxCell id="xvgsJNBPu3g_IwPxBa5t-8" value="32H&amp;nbsp;← (B)&lt;br&gt;33H&amp;nbsp;← (A)" style="whiteSpace=wrap;fontFamily=思源黑体 Heavy;rounded=0;html=1;" vertex="1" parent="WIyWlLk6GJQsqaUBKTNV-1">
          <mxGeometry x="160" y="390" width="120" height="40" as="geometry" />
        </mxCell>
        <mxCell id="xvgsJNBPu3g_IwPxBa5t-10" value="结束" style="rounded=1;whiteSpace=wrap;fontSize=12;glass=0;strokeWidth=1;shadow=0;fontFamily=思源黑体 Heavy;html=1;" vertex="1" parent="WIyWlLk6GJQsqaUBKTNV-1">
          <mxGeometry x="190" y="450" width="60" height="20" as="geometry" />
        </mxCell>
      </root>
    </mxGraphModel>
  </diagram>
</mxfile>
